<?xml version="1.0" encoding="UTF-8"?><svg id="a" xmlns="http://www.w3.org/2000/svg" viewBox="0 0 1080 1080"><defs><style>.b{fill:none;stroke:#d2a54b;stroke-miterlimit:10;stroke-width:30px;}.c{fill:#d2a54b;}</style></defs><rect class="b" x="-.902" y=".0415" width="1080.5351" height="1080.4804"/><g><path class="c" d="M124.9653,109.644c0-34.3999-3.583-37.9829-37.9829-37.9829h-25.083v-6.4502h225.7476c116.0991,0,194.2148,68.7993,194.2148,171.9985s-78.1157,171.2817-194.2148,171.2817h-106.7822v127.5654c0,34.3994,4.3003,37.9824,38.6997,37.9824h25.083v6.4502H61.8994v-6.4502h25.083c34.3999,0,37.9829-3.583,37.9829-37.9824V109.644Zm149.7817,287.3804c97.4658,0,149.7822-60.916,149.7822-159.8149s-52.3164-158.3818-149.7822-158.3818h-109.6489l3.5835,.7168c8.6001,8.5996,12.1831,20.7827,12.1831,37.2661V399.8911l93.8823-2.8667Z"/><path class="c" d="M512.6782,574.0391h18.6333c28.251,0,38.6992-10.2549,38.6992-37.9824V109.644c0-34.3999-4.2998-37.9829-38.6992-37.9829h-18.6333v-6.4502h109.6489l196.3643,361.1963c7.8838,13.6167,12.9004,23.6499,12.9004,26.5166h4.2998c-.7168-7.8833-.7168-17.9165-.7168-30.0996V116.8105c0-32.959-12.3838-45.1494-45.8662-45.1494h-32.25v-6.4502h147.6328v6.4502h-11.4668c-33.4824,0-45.8662,12.1904-45.8662,45.1494v477.2949h-5.7334c0-7.166-10.75-27.2324-20.0664-44.4326l-222.165-403.4795c-7.2842-13.2295-14.333-27.2329-14.333-27.9497h-3.583c.7168,7.8833,.7168,18.6333,.7168,30.8164v386.9966c0,27.7275,10.4482,37.9824,38.6992,37.9824h18.6338v6.4502h-126.8491v-6.4502Z"/></g><g><path class="c" d="M241.2119,543.2178c0-34.3999-3.583-37.9829-37.9829-37.9829h-25.083v-6.4502h225.7476c116.0991,0,194.2148,68.7993,194.2148,171.9985s-78.1157,171.2812-194.2148,171.2812h-106.7822v127.5654c0,34.3994,4.3003,37.9824,38.6997,37.9824h25.083v6.4502H178.146v-6.4502h25.083c34.3999,0,37.9829-3.583,37.9829-37.9824v-426.4121Zm149.7817,287.3799c97.4658,0,149.7822-60.916,149.7822-159.8145s-52.3164-158.3818-149.7822-158.3818h-109.6489l3.5835,.7168c8.6001,8.5996,12.1831,20.7827,12.1831,37.2656v283.0811l93.8823-2.8672Z"/><path class="c" d="M628.9248,1007.6123h18.6338c28.251,0,38.6992-10.2549,38.6992-37.9824v-426.4121c0-34.3999-4.2998-37.9829-38.6992-37.9829h-18.6338v-6.4502h109.6494l196.3643,361.1958c7.8838,13.6172,12.9004,23.6504,12.9004,26.5166h4.2998c-.7168-7.8828-.7168-17.916-.7168-30.0996v-306.0137c0-32.9585-12.3838-45.1489-45.8662-45.1489h-32.25v-6.4502h147.6328v6.4502h-11.4668c-33.4824,0-45.8662,12.1904-45.8662,45.1489v477.2949h-5.7334c0-7.166-10.75-27.2324-20.0664-44.4326l-222.165-403.4795c-7.2842-13.2295-14.333-27.2324-14.333-27.9492h-3.583c.7168,7.8828,.7168,18.6328,.7168,30.8164v386.9961c0,27.7275,10.4482,37.9824,38.6992,37.9824h18.6338v6.4502h-126.8496v-6.4502Z"/></g></svg>